<?xml version="1.0" encoding="utf-8"?>
<!-- Generator: Adobe Illustrator 23.0.3, SVG Export Plug-In . SVG Version: 6.00 Build 0)  -->
<svg version="1.1" id="Layer_1" xmlns="http://www.w3.org/2000/svg" xmlns:xlink="http://www.w3.org/1999/xlink" x="0px" y="0px"
	 viewBox="0 0 915 534" style="enable-background:new 0 0 915 534;" xml:space="preserve">
<style type="text/css">
	.st0{fill:none;stroke:#000000;stroke-miterlimit:10;}
</style>
<path class="st0" d="M234.4,12C184.9-12.1,122.6,0.8,79.8,35.3S11.9,122.8,1.3,176.8c-1.2,5.9-2.1,12-0.4,17.7
	c4.2,13.4,20.8,17.8,34.8,18.9c61.6,4.6,128.6-17.9,161.9-70c26.8-41.9,27.8-94.8,43.6-141.9c-29.7,77-55.5,155.4-77.3,234.9
	c46.1-46.6,92.2-93.2,138.3-139.8c-7.2,23-18.6,44.7-33.4,63.7c18.1-18.5,36.3-36.9,54.4-55.4c-23,31.5-40.5,67-51.6,104.3
	c13.8,5.9,28.2-6.5,38.1-17.8c40.1-45.4,80.1-90.8,120.2-136.3c13.9-15.8,28.4-32.8,31.8-53.6c-53.5,69.8-109.4,145.8-113.1,233.7
	c6.2,3.9,13.6-2.6,18-8.6c18.6-25.4,35.4-52,50.1-79.8c17.7-33.4,32.6-74,15.7-107.8c-37,9.2-69.5,34.9-87.2,68.7
	c31.1,1.3,62.3,2.6,93.4,4c8.4,0.4,17,0.7,25.1-1.6c12.4-3.6,22.2-12.9,31.2-22.1c12.2-12.6,24-25.6,35.2-39
	c6.5-7.8,13.2-16.4,13.8-26.5s-7.8-21.4-17.8-19.6c-8.4,1.5-12.9,10.5-16.1,18.5c-34.1,85.6-65.4,177.8-136,237
	c29.6-45.8,71.3-83.8,119.8-108.8c-5.2,25.1-6.2,51.1-2.9,76.6c26.7-28.8,47.5-62.9,60.9-99.8c4.3-11.8,8.3-24.6,18.2-32.3
	c9.9-7.7,27.8-6.2,31.5,5.8c-10.9-11.5-31-9.4-43.1,0.8s-17.9,26.1-21.3,41.5c-4.7,21-6.2,42.6-4.4,64c0.5,6.4,1.5,13.2,5.4,18.4
	c9.3,12.4,29.1,8.7,42.4,0.7c17.8-10.8,32-27.3,40.1-46.4c2.1-5.1,3.9-10.6,2.7-16c-2.1-9.7-12.4-15-21.9-17.9
	c-21.6-6.7-44.9-7.8-67.1-3.1c29.1,30.9,84.7,30.9,113.8-0.1c-4.3,31.1-15.3,61.3-32,87.8c23.4-36.1,52.2-68.7,85.1-96.3
	c1,16.8-1.8,33.9-8.2,49.5c11-6.9,22-13.9,33-20.8c-3.8,26-16.6,50.7-35.8,68.6c22.4-22,44.9-44,67.3-66
	c-26.4,47.5-39.6,102.2-38,156.5c29.1-8.7,52.1-30.5,73-52.6c45.8-48.3,86.7-101.3,122-157.7c-75.4,76.3-138,167.6-228.8,224.7
	c-55.2,34.7-118.2,54.9-180.8,73.2c-51.9,15.1-104,29.2-156.5,42.2c-52.1,12.9-111.9,23.5-155.7-7.6c-15.6-11.1-28.2-27.9-29.9-47
	c-1.7-19.1,9.6-39.7,28.1-44.9c12.1-3.4,25.2,0,37.3-3.5c12-3.4,21.6-20.1,11.9-28c0.3,7.2,0.7,14.5,1,21.7
	c13.4,4.7,28.6,9.3,41.4,3s16.1-28.8,2.6-33.2c-14.6-4.8-24.2,14.5-28.9,29.1c-14.9,46.7-47.5,86-85.6,116.8s-81.7,53.8-125.1,76.6
	c-2.3-38.7,15.4-79.8,49.3-98.7c33.9-18.9,82.9-9.3,101.9,24.5c6.2,11,9.1,23.6,14.6,35s14.9,22.3,27.4,24.1c8.6,1.3,17.3-2,25-6
	c21-10.9,38.8-28.1,50.4-48.7c-4.5,4-2.3,12.2,2.9,15.3c5.2,3.2,11.7,2.7,17.7,1.5c15.9-3.1,31-10,43.6-20c0.1,10,0.2,20,0.3,30
	c43.2-5,85.6-17.1,124.9-35.7c0.1-14.6,0.3-29.2,0.4-43.8c-6,23.7-12.1,47.5-18.1,71.2c-4.6,18-5.4,43.2,12.3,48.6
	c10,3,20.4-2.9,28.9-9c17.3-12.6,33.1-27.4,46.7-43.9"/>
</svg>
