<?xml version="1.0" encoding="utf-8"?>
<!-- Generator: Adobe Illustrator 23.0.3, SVG Export Plug-In . SVG Version: 6.00 Build 0)  -->
<svg version="1.1" id="Layer_1" xmlns="http://www.w3.org/2000/svg" xmlns:xlink="http://www.w3.org/1999/xlink" x="0px" y="0px"
	 viewBox="0 0 1017 339" style="enable-background:new 0 0 1017 339;" xml:space="preserve">
<style type="text/css">
	.st0{fill:none;stroke:#000000;stroke-miterlimit:10;}
</style>
<path class="st0" d="M202.7,83.1c-14.8-27.4-51.4-35.3-82.1-30.5C80.5,58.9,43.2,81.9,19.7,115C5.6,134.9-3.8,160.1,2.2,183.8
	c6.3,25.1,28.4,43.1,51.5,54.6c14.5,7.2,30.8,12.7,46.7,10c23.3-3.9,40.5-24.1,51.1-45.2C163.7,179,170,152,170,125
	c-16.8,30.1-24.2,65.4-21,99.7c18-12.7,34.5-27.5,49.2-43.9c-2.3,11.8-4.6,23.6-6.9,35.5c10.8-11.8,24.1-21.3,38.8-27.5
	c-1.2,13.2,4.8,26.9,15.3,35.1c40.1-47.6,53.2-111.7,62.7-173.2c-7,40.2-14,80.3-21,120.5c-2.4,13.5-1,32.6,12.6,34.5
	c11.3,1.6,19-11.4,21.3-22.7c4.2-20.2,1.8-42.7-10.9-58.9c-12.7-16.2-37.2-23.7-55.1-13.5c4.2,15.7,23.1,23.6,39.2,21.1
	c16.1-2.5,29.8-12.5,42.9-22.2c37.1-27.6,77.7-61.5,79.5-107.7c-12.9-5-28.1,3.1-35.3,14.9c-7.3,11.8-8.5,26.3-9,40.2
	c-2,65.2,8,136.5-28.7,190.5c-1.5-37.7,7.5-75.8,25.6-108.9c4.5-8.1,13.7-17.1,21.5-12.1c3.6,12.3-0.5,25.4-0.4,38.2
	c0.1,12.8,8.2,27.9,21,27c11.3-0.8,17.7-13.9,17.9-25.2c0.2-11.3-3.4-22.7-1.5-33.9c4-24.3,38-37.4,57.3-22.1
	c-21.7-2-45.4,4.3-58.9,21.4c-13.4,17.2-11.9,46,6.6,57.6c18.1,11.4,43.4,1.7,56.2-15.4s16.1-39.3,18.5-60.6
	c0.6-5.4,1.2-11.1-1.1-16.1c-5-11.3-22-12.3-31.9-5c-10,7.3-14.7,19.6-18.8,31.3c28.7-1.9,56.8-13,79-31.3
	c-3.4,19.2-6.9,38.4-10.3,57.7c8-6.4,16-12.7,24-19.1c0,11.3,0,22.5,0,33.8c5.4-10.2,12.3-19.6,20.5-27.8
	c-0.4,18.8-0.9,37.5-1.3,56.3c31.2-11.1,57.6-35.1,71.6-65.1c12.2,70.4-18.5,148.2-79.4,185.6c-60.8,37.4-148.7,27.4-195-27
	c78.7-29.9,166.6-30.4,244.3-62.8c42.4-17.7,80.5-44.3,121.7-64.8c22.6-11.3,46.4-20.9,66.5-36.2c20.1-15.3,36.6-37.9,37.3-63.2
	c0.4-13.8-7.8-30.5-21.6-29.7c-10.4,0.6-17.4,11-21.3,20.7c-12.9,32.2-11.5,68.1-8,102.6c3.5,34.5,8.7,69.4,2.7,103.6
	s-26,68.2-58.4,80.4c-6.8,2.6-15,4-21-0.1c-3.7-2.5-5.9-6.7-7.5-10.9c-12.2-31.4,1.5-69.3,27.9-90.3c26.4-21,62.7-26.7,95.9-20.9
	c33.2,5.7,63.8,21.8,91.9,40.5c6.8-7.6,13.6-15.2,20.4-22.9c0.2,3.8,0.4,7.6,0.6,11.5c5.1-1,10.7,2.9,11.5,8.1
	c7.6-17.3,29.5-26.7,47.2-20.2c3.6,1.3,7.2,3.2,11.1,2.9c6.5-0.6,10.9-7.7,10.8-14.3c-0.1-6.6-3.4-12.6-6.7-18.3"/>
</svg>
